<svg width="20" height="18" viewBox="0 0 20 18" fill="none" xmlns="http://www.w3.org/2000/svg">
<path fill-rule="evenodd" clip-rule="evenodd" d="M5.54569 1.75C3.47486 1.75 1.75 3.49882 1.75 5.71405C1.75 6.774 2.15628 7.78529 2.87128 8.52678L10 15.9195L17.1287 8.52678C17.8437 7.78529 18.25 6.774 18.25 5.71405C18.25 3.49882 16.5251 1.75 14.4543 1.75C13.4566 1.75 12.494 2.16076 11.7799 2.90131L10.5399 4.18727C10.3985 4.33386 10.2036 4.41667 10 4.41667C9.79636 4.41667 9.60147 4.33386 9.46012 4.18727L8.22009 2.90131C7.50598 2.16076 6.54338 1.75 5.54569 1.75ZM0.25 5.71405C0.25 2.72228 2.59548 0.25 5.54569 0.25C6.95917 0.25 8.309 0.832556 9.29986 1.86011L10 2.58619L10.7001 1.86011L11.225 2.36619L10.7001 1.86011C11.691 0.832555 13.0408 0.25 14.4543 0.25C17.4045 0.25 19.75 2.72228 19.75 5.71405C19.75 7.15458 19.1984 8.54135 18.2085 9.56798L10.5399 17.5206C10.3985 17.6672 10.2036 17.75 10 17.75C9.79636 17.75 9.60147 17.6672 9.46012 17.5206L1.79152 9.56798C0.801554 8.54135 0.25 7.15458 0.25 5.71405Z" fill="#A0A6A6"/>
</svg>
